<mxfile host="app.diagrams.net" modified="2023-04-25T10:21:38.691Z" agent="Mozilla/5.0 (Windows NT 10.0; Win64; x64) AppleWebKit/537.36 (KHTML, like Gecko) Chrome/112.0.0.0 Safari/537.36" version="21.2.1" etag="qsy4tj6ss-9-NShUjtgV" type="github">
  <diagram name="PÃ¡gina-1" id="hbPe-lhVUJYwK0kxsDmu">
    <mxGraphModel>
      <root>
        <mxCell id="0" />
        <mxCell id="1" parent="0" />
      </root>
    </mxGraphModel>
  </diagram>
</mxfile>
